<svg width="22" height="17" viewBox="0 0 22 17" fill="none" xmlns="http://www.w3.org/2000/svg">
<path id="Vector" d="M18.6148 1.4128C17.2214 0.754226 15.7128 0.276227 14.1413 4.88603e-05C14.1275 -0.000397914 14.1138 0.00222374 14.1012 0.00772953C14.0885 0.0132353 14.0772 0.0214915 14.068 0.0319157C13.8794 0.382449 13.6594 0.839204 13.5127 1.18974C11.8459 0.934804 10.1508 0.934804 8.48403 1.18974C8.33735 0.828582 8.11735 0.382449 7.91829 0.0319157C7.90782 0.0106713 7.87639 4.88603e-05 7.84496 4.88603e-05C6.27349 0.276227 4.77535 0.754226 3.3715 1.4128C3.36103 1.4128 3.35055 1.42343 3.34007 1.43405C0.490471 5.75729 -0.295265 9.96369 0.0923649 14.1276C0.0923649 14.1488 0.102841 14.1701 0.123794 14.1807C2.00956 15.5828 3.82199 16.4326 5.61347 16.9956C5.6449 17.0062 5.67633 16.9956 5.6868 16.9744C6.10586 16.3901 6.48302 15.774 6.80779 15.1261C6.82874 15.0836 6.80779 15.0411 6.76588 15.0305C6.16872 14.7968 5.60299 14.5206 5.04774 14.202C5.00583 14.1807 5.00583 14.117 5.03726 14.0851C5.1525 14.0001 5.26775 13.9045 5.38299 13.8196C5.40394 13.7983 5.43537 13.7983 5.45632 13.8089C9.06023 15.4766 12.947 15.4766 16.509 13.8089C16.53 13.7983 16.5614 13.7983 16.5823 13.8196C16.6976 13.9152 16.8128 14.0001 16.9281 14.0957C16.97 14.1276 16.97 14.1913 16.9176 14.2126C16.3728 14.5419 15.7966 14.8074 15.1994 15.0411C15.1575 15.0517 15.1471 15.1048 15.1575 15.1367C15.4928 15.7847 15.8699 16.4008 16.2785 16.985C16.31 16.9956 16.3414 17.0062 16.3728 16.9956C18.1748 16.4326 19.9872 15.5828 21.873 14.1807C21.8939 14.1701 21.9044 14.1488 21.9044 14.1276C22.3654 9.31573 21.1396 5.1412 18.6567 1.43405C18.6462 1.42343 18.6357 1.4128 18.6148 1.4128ZM7.35256 11.5889C6.27349 11.5889 5.37251 10.5798 5.37251 9.33698C5.37251 8.09418 6.25253 7.08507 7.35256 7.08507C8.46307 7.08507 9.34309 8.1048 9.33262 9.33698C9.33262 10.5798 8.45259 11.5889 7.35256 11.5889ZM14.6547 11.5889C13.5756 11.5889 12.6746 10.5798 12.6746 9.33698C12.6746 8.09418 13.5546 7.08507 14.6547 7.08507C15.7652 7.08507 16.6452 8.1048 16.6347 9.33698C16.6347 10.5798 15.7652 11.5889 14.6547 11.5889Z" fill="white"/>
</svg>
