<svg width="58" height="45" viewBox="0 0 58 45" fill="none" xmlns="http://www.w3.org/2000/svg">
<path id="Vector" d="M49.0753 3.73978C45.4019 1.99648 41.4246 0.731188 37.2817 0.000129336C37.2453 -0.0010533 37.2092 0.00588636 37.1758 0.0204605C37.1424 0.0350347 37.1125 0.0568894 37.0883 0.0844828C36.5912 1.01237 36.0112 2.22142 35.6245 3.14931C31.2302 2.47448 26.7613 2.47448 22.367 3.14931C21.9803 2.19331 21.4003 1.01237 20.8755 0.0844828C20.8479 0.0282476 20.765 0.000129336 20.6822 0.000129336C16.5392 0.731188 12.5896 1.99648 8.88851 3.73978C8.86089 3.73978 8.83327 3.76789 8.80565 3.79601C1.29306 15.2399 -0.778425 26.3745 0.243508 37.3966C0.243508 37.4528 0.271127 37.5091 0.326367 37.5372C5.29793 41.2487 10.0762 43.4981 14.7991 44.9884C14.882 45.0165 14.9649 44.9884 14.9925 44.9321C16.0973 43.3857 17.0916 41.7548 17.9478 40.0396C18.003 39.9272 17.9478 39.8147 17.8373 39.7866C16.263 39.168 14.7715 38.4369 13.3077 37.5934C13.1972 37.5372 13.1972 37.3685 13.2801 37.2841C13.5839 37.0592 13.8877 36.8061 14.1915 36.5812C14.2467 36.5249 14.3296 36.5249 14.3848 36.5531C23.8861 40.9675 34.133 40.9675 43.5237 36.5531C43.579 36.5249 43.6618 36.5249 43.7171 36.5812C44.0209 36.8342 44.3247 37.0592 44.6285 37.3122C44.739 37.3966 44.739 37.5653 44.6009 37.6215C43.1647 38.4932 41.6456 39.1961 40.0713 39.8147C39.9608 39.8428 39.9332 39.9834 39.9608 40.0678C40.8446 41.7829 41.8389 43.4138 42.9161 44.9602C42.999 44.9884 43.0818 45.0165 43.1647 44.9884C47.9153 43.4981 52.6935 41.2487 57.6651 37.5372C57.7203 37.5091 57.7479 37.4528 57.7479 37.3966C58.9632 24.6593 55.7317 13.6091 49.1858 3.79601C49.1582 3.76789 49.1306 3.73978 49.0753 3.73978ZM19.384 30.6765C16.5392 30.6765 14.1639 28.0053 14.1639 24.7155C14.1639 21.4258 16.484 18.7546 19.384 18.7546C22.3117 18.7546 24.6318 21.4539 24.6042 24.7155C24.6042 28.0053 22.2841 30.6765 19.384 30.6765ZM38.635 30.6765C35.7902 30.6765 33.4149 28.0053 33.4149 24.7155C33.4149 21.4258 35.735 18.7546 38.635 18.7546C41.5627 18.7546 43.8828 21.4539 43.8552 24.7155C43.8552 28.0053 41.5627 30.6765 38.635 30.6765Z" fill="#041412"/>
</svg>
