<svg width="54" height="44" viewBox="0 0 54 44" fill="none" xmlns="http://www.w3.org/2000/svg">
<path id="Vector" d="M54 5.22328C51.9784 6.11955 49.8346 6.70834 47.6394 6.97017C49.9523 5.58205 51.6828 3.3987 52.5085 0.826852C50.3362 2.12242 47.9547 3.03038 45.4751 3.52152C43.8077 1.73369 41.5977 0.547996 39.1886 0.148764C36.7794 -0.250468 34.3062 0.159134 32.1533 1.31389C30.0004 2.46865 28.2885 4.30386 27.2838 6.53422C26.279 8.76459 26.0377 11.2651 26.5973 13.6471C22.1916 13.4262 17.8816 12.2791 13.947 10.2804C10.0124 8.28166 6.54135 5.47594 3.75912 2.04543C2.77441 3.74042 2.25695 5.66724 2.25971 7.62857C2.25971 11.4781 4.21742 14.879 7.18711 16.8701C5.42812 16.8145 3.70786 16.3385 2.16964 15.4816V15.617C2.16956 18.1813 3.05454 20.6666 4.67448 22.6515C6.29443 24.6364 8.54959 25.9986 11.0575 26.5072C9.42468 26.9511 7.71241 27.0165 6.05063 26.6983C6.75774 28.9056 8.13606 30.8359 9.99254 32.2188C11.849 33.6018 14.0906 34.3682 16.4035 34.4107C14.1049 36.2198 11.4731 37.5571 8.65846 38.3461C5.84381 39.1351 2.90157 39.3603 0 39.0089C5.06441 42.2727 10.9598 44.0055 16.981 44C37.3634 44 48.5057 27.0806 48.5057 12.4073C48.5057 11.9294 48.4951 11.4462 48.4739 10.971C50.642 9.40031 52.5133 7.45219 54 5.22328Z" fill="#041412"/>
</svg>
